<?xml version="1.0" standalone="yes"?>
<svg xmlns="http://www.w3.org/2000/svg" width="250" height="250">
<path style="fill:#0e5210; stroke:none;" d="M0 0L0 110L1 110C1.43411 57.5602 57.6172 1.43369 110 1L77 0L0 0z"/>
<path style="fill:#3e9640; stroke:none;" d="M28 205L29 205L19 190C25.4226 187.274 24.877 174.387 18 173C15.3162 161.259 18.2616 148.481 8 140L10 137L6 139C5.81494 131.926 8.90357 127.485 13 122L9 121L9 120L13 121L26 99L28 100L31 95L32 95L34 99L36 99C36.4943 95.8628 36.0359 95.0004 33 94L33 93L42 90C42 86.1705 48.1542 88.9605 51 89C58.9562 89.1105 73.5692 80.8369 81 84.5C86.9575 87.4368 85.2711 93.3898 93 94L87 85C97.1732 85.0292 99.538 90.0993 106 97L112 94L112 93L106 94L109 81C100.73 76.1684 108.571 65.7421 96 64L96 63L111 62L111 61L106 60L106 59C115.084 58.7124 111.943 72.1694 112 79L113 79C114.666 73.7341 118.575 60.8808 114.851 56.3218C111.228 51.8861 104.76 57.1523 100.039 55.3927C94.919 53.4841 92.2249 47.0936 87.9105 43.9051C83.847 40.902 78.0075 41.2676 74.3843 38.2577C67.7473 32.7443 78.1853 21.0399 83 18L78 28L86.4182 18.7423L99 16C97.4068 21.0259 92.1558 32.1989 93.909 36.9606C99.0205 50.8445 116.517 37.7713 119 29C111.706 26.884 113.518 21.1045 114 15L104 14L104 13L151 17L134 31C142.188 29.3055 149.853 27.0282 152 18L158 18L145 32C149.874 31.3834 155.081 29.4372 159 33L161 33L162 29L173 30C175.109 22.595 182.583 23.0165 189 24.9429C199.415 28.0695 213.255 40.9264 217 51L214 54L217 51L218 51C216.823 62.4879 228.804 67.8556 232.073 78.0039C235.598 88.9518 231.244 104.641 230 116L232 116C228.929 122.981 221.237 132.543 213 128L209 133L233 134L241.089 166L237 180C245.248 170.41 247.702 154.165 249.282 142C254.617 100.925 239.944 59.0203 209 31.1705C151.195 -20.8549 56.2215 -5.82805 16.9892 61C4.15005 82.8701 -0.119976 105.962 0.000771605 131C0.134281 158.685 12.2423 183.08 28 205z"/>
<path style="fill:#0e5210; stroke:none;" d="M140 0L140 1C192.951 1.43839 247.914 57.406 249 110L250 110L250 0L140 0z"/>
<path style="fill:#0101ff; stroke:none;" d="M160 4L161 5L160 4z"/>
<path style="fill:#0e5210; stroke:none;" d="M104 13L104 14L114 15C113.243 20.993 111.279 27.7687 119 29C115.43 36.5922 98.2333 51.0608 94.0023 35.9861C92.7457 31.5087 97.8716 20.9362 99 16C86.9483 16.5175 86.4202 21.2176 78 28L83 18C77.6979 20.2795 67.3864 32.6646 73.5872 38.2577C77.2311 41.5445 83.7038 41.2567 87.9105 44.6096C91.8003 47.7099 94.3523 53.529 99.0895 55.3966C103.764 57.2395 110.551 52.5488 114.191 56.358C118.307 60.6638 114.221 73.5939 113 79L112 79C111.981 72.1222 116.197 57.3258 106 59L106 60L111 61L111 62L96 63L96 64C107.665 66.5514 100.892 78.1489 109 81L106 94L112 93L112 94L106 97C100.476 88.822 97.1138 85.0067 87 85L93 94L80.9815 84.4815L52 88.9167L42 90C37.9232 88.6321 36.2106 90.451 33 93L33 94L36 99L34 99L32 95L31 95L28 100L26 99C21.2866 107.689 13.2276 110.032 13 121L9 120L9 121L13 122C8.09028 126.733 5.06881 132.068 6 139L10 137L8 140C17.2866 150.896 14.0131 160.423 18 173C24.9666 175.152 24.4225 186.61 19 190L29 205L28 205C16.8146 182.545 1.22191 164.806 1 138L0 138L0 250L109 250L109 249C103.317 248.953 96.4302 248.853 92 245C114.829 250.906 137.631 250 161 250L250 250L250 140L249 140C248.881 154.42 242.148 166.631 238 180L237 180L241.461 166L233 134L209 133L213 128C221.032 133.618 229.831 123.301 232 116L230 116C232.265 104.866 235.88 86.7788 231.744 76.0394C228.17 66.7619 217.74 61.679 218 51L217 51L214 54L217 51C214.389 40.6715 200.168 27.9954 190 24.9429C183.424 22.9687 174.312 21.5963 173 30L162 29L161 33L159 33C156.117 28.6808 149.475 31.1663 145 32C150.848 27.1375 155.106 25.8435 158 18L152 18C148.712 26.486 142.122 28.6951 134 31C139.451 26.0401 149.792 24.7358 151 17C136.143 16.6933 118.042 8.55032 104 13M100 15L101 16L100 15z"/>
<path style="fill:#3e9640; stroke:none;" d="M124 18L123 20L125 20L124 18z"/>
<path style="fill:#fbfbfc; stroke:none;" d="M193 19L194 20L193 19z"/>
<path style="fill:#3e9640; stroke:none;" d="M86 20L88 22L86 20z"/>
<path style="fill:#fbfbfc; stroke:none;" d="M49 24L50 25L49 24M200 24L201 25L200 24M48 25L49 26L48 25z"/>
<path style="fill:#3e9640; stroke:none;" d="M117 38C122.64 35.741 125.35 32.3937 128 27C123.136 27.2404 119.065 33.8422 117 38M83.3333 27.6667L83.6667 28.3333L83.3333 27.6667M184 27L185 28L184 27z"/>
<path style="fill:#fbfbfc; stroke:none;" d="M204 27L205 28L204 27M43 29L44 30L43 29z"/>
<path style="fill:#3e9640; stroke:none;" d="M77 32L77 36L79 36L79 32L77 32M143 32L144 33L143 32M154 32L157 35L156 32L154 32M166 32L170 35L166 32M129 33L130 34L129 33M141 33L142 34L141 33M147 33L148 34L147 33M177 39L193 33C186.59 33.0184 181.343 33.934 177 39M121 60L122 60C122.112 50.4889 128.158 51.71 133.501 45.6705C136.322 42.4807 137.876 37.7027 140 34C128.541 36.7546 117.671 48.0322 121 60M85 35L84 38L88 38L85 35M149 35L150 36L149 35z"/>
<path style="fill:#0e5210; stroke:none;" d="M105 37L106 40L108 40L109 39L109 37L108 36L105 37z"/>
<path style="fill:#3e9640; stroke:none;" d="M199 37L200 38L199 37M89.3333 38.6667L89.6667 39.3333L89.3333 38.6667M195 38L196 41L199 40L199 39L195 38M191.667 39.3333L192.333 39.6667L191.667 39.3333M122 40L121 42L122 40M173 42C167.082 50.196 166.082 65.0477 166 75L167 75C168.596 63.2626 175.939 54.6582 173 42M156 43L156 45L158 43L156 43M168.333 43.6667L168.667 44.3333L168.333 43.6667M195 43L187.653 47.3171L186 64L187 64C190.327 57.2043 189.843 51.2265 197 47L197 43L195 43z"/>
<path style="fill:#0101ff; stroke:none;" d="M220 43L221 44L220 43z"/>
<path style="fill:#fbfbfc; stroke:none;" d="M27 45L28 46L27 45z"/>
<path style="fill:#3e9640; stroke:none;" d="M206 45L208 48L206 45z"/>
<path style="fill:#fbfbfc; stroke:none;" d="M222 45L223 46L222 45z"/>
<path style="fill:#3e9640; stroke:none;" d="M202 47L203 48L202 47z"/>
<path style="fill:#fbfbfc; stroke:none;" d="M24 49L25 50L24 49z"/>
<path style="fill:#3e9640; stroke:none;" d="M199 49C189.979 60.3425 180.131 76.4313 190 89L201.821 80.892L205 55L201 56L200 55L199 49z"/>
<path style="fill:#fbfbfc; stroke:none;" d="M225 49L226 50L225 49z"/>
<path style="fill:#3e9640; stroke:none;" d="M136 53L136 55L138 55L136 53M162 58L161 60L162 58M211 58L210 61L211 58M214 58L215 59L214 58z"/>
<path style="fill:#fbfbfc; stroke:none;" d="M231 58L232 59L231 58z"/>
<path style="fill:#3e9640; stroke:none;" d="M218 60L217 63L218 60M205 61C203.174 67.2388 205.651 70.8444 209 76C211.268 70.5944 210.135 64.0746 205 61z"/>
<path style="fill:#817d93; stroke:none;" d="M196.333 62.6667L196.667 63.3333L196.333 62.6667z"/>
<path style="fill:#3e9640; stroke:none;" d="M160 63L162 73L163 73L160 63M211.667 63.3333L212.333 63.6667L211.667 63.3333z"/>
<path style="fill:#0101ff; stroke:none;" d="M11 71L12 72L11 71z"/>
<path style="fill:#3e9640; stroke:none;" d="M217 75L218 76L217 75z"/>
<path style="fill:#0e5210; stroke:none;" d="M185 77L186 78L185 77M191 77L192 78L191 77z"/>
<path style="fill:#3e9640; stroke:none;" d="M217.333 78.6667L217.667 79.3333L217.333 78.6667z"/>
<path style="fill:#0e5210; stroke:none;" d="M189 79L190 80L189 79M187 81L188 82L187 81M189 81L190 82L189 81M192.333 82.6667L192.667 83.3333L192.333 82.6667z"/>
<path style="fill:#fbfbfc; stroke:none;" d="M6 83L7 84L6 83z"/>
<path style="fill:#3e9640; stroke:none;" d="M108 84L109 85L108 84z"/>
<path style="fill:#0e5210; stroke:none;" d="M188 84L189 85L188 84z"/>
<path style="fill:#3e9640; stroke:none;" d="M167.333 85.6667L167.667 86.3333L167.333 85.6667M184.333 85.6667L184.667 86.3333L184.333 85.6667M109.667 86.3333L110.333 86.6667L109.667 86.3333M205 86L197 91L197 92C200.76 91.4011 204.718 90.2848 205 86z"/>
<path style="fill:#0e5210; stroke:none;" d="M190 87L191 88L190 87z"/>
<path style="fill:#3e9640; stroke:none;" d="M117 88L118 92L119 92L120 88L117 88z"/>
<path style="fill:#fbfbfc; stroke:none;" d="M4 90L5 91L4 90z"/>
<path style="fill:#3e9640; stroke:none;" d="M110 90L111 91L110 90z"/>
<path style="fill:#0e5210; stroke:none;" d="M25 91L26 92L25 91z"/>
<path style="fill:#3e9640; stroke:none;" d="M42 91L44 93L42 91M187 95L189 93L196 92C192.192 90.5327 189.569 92.0892 187 95M36 92L37 93L36 92z"/>
<path style="fill:#0e5210; stroke:none;" d="M29 93L30 94L29 93M26 96L25 99L26 99L26 96z"/>
<path style="fill:#3e9640; stroke:none;" d="M39 96L40 97L39 96z"/>
<path style="fill:#fbfbfc; stroke:none;" d="M2 97L3 98L2 97z"/>
<path style="fill:#3e9640; stroke:none;" d="M96 97L97 98L96 97M168 97L168 99L170 99L170 97L168 97M74 99L74 100L87 99L74 99M226 98C218.841 112.473 206.52 110.398 193 115L193 116C202.483 114.723 233.324 115.619 226 98M94 100L96 104L97 104L100 103L98 99L94 100M108 99L108 101L110 101L110 99L108 99M156 101L157 102L156 101z"/>
<path style="fill:#fbfbfc; stroke:none;" d="M1 102L2 103L1 102z"/>
<path style="fill:#3e9640; stroke:none;" d="M40 125L68 103C54.5545 97.8047 44.0081 114.782 40 125M154 104L154 106L160 107L160 103L154 104M27 104L31 107L27 104M105 105L105 108L108 107L108 106L105 105M25 106L26 107L25 106M200 107L196 112L200 107M165 111L168 109L165 111M22 111L23 112L22 111z"/>
<path style="fill:#817d93; stroke:none;" d="M247 112L248 113L247 112z"/>
<path style="fill:#3e9640; stroke:none;" d="M22 114L22 117L25 116L25 115L22 114M28 114L28 116L30 114L28 114M99 115L99 117L101 117L101 115L99 115M105 115L106 116L105 115z"/>
<path style="fill:#0e5210; stroke:none;" d="M9 116L10 117L9 116M7 117L8 120L9 120L7 117z"/>
<path style="fill:#3e9640; stroke:none;" d="M213 117L214 118L213 117M159.333 119.667L159.667 120.333L159.333 119.667M165 119L166 120L165 119z"/>
<path style="fill:#0e5210; stroke:none;" d="M8 122L10 124L8 122z"/>
<path style="fill:#3e9640; stroke:none;" d="M13 124L13 126L15 126L13 124M34 134L36 137L34 134M20 137C21.0004 140.036 21.8628 140.494 25 140L25 138L20 137M116 137L116 141L118 141L118 137L116 137M206 139L211 141L206 139M39 141L39 145L40 145L39 141M206 145L205 147L207 147L206 145M45 151L44 152L44 153L45 154L46 154L47 153L47 152L45 151M152 154L151 157L165.174 174.682L192 177L192 173L198 172L198 170C185.157 160.999 167.976 155.568 152 154M34 155L33 156L36 158L34 155M25 157L26 158L25 157M21.3333 158.667L21.6667 159.333L21.3333 158.667z"/>
<path style="fill:#fbfbfc; stroke:none;" d="M4 159L5 160L4 159z"/>
<path style="fill:#3e9640; stroke:none;" d="M216 162L223 166L216 167L215 181C222.785 178.693 228.443 172.494 233 166L216 162M211 163L211 164L215 165L211 163z"/>
<path style="fill:#0e5210; stroke:none;" d="M224 164L225 165L224 164z"/>
<path style="fill:#3e9640; stroke:none;" d="M141.333 165.667L141.667 166.333L141.333 165.667M153.333 165.667L153.667 166.333L153.333 165.667M216 165L217 166L216 165z"/>
<path style="fill:#0e5210; stroke:none;" d="M226 165L225 167L226 165z"/>
<path style="fill:#fbfbfc; stroke:none;" d="M6 166L7 167L6 166z"/>
<path style="fill:#0e5210; stroke:none;" d="M221 166L217 173L221 166z"/>
<path style="fill:#3e9640; stroke:none;" d="M207 168L207 170L209 168L207 168M205 170L205 174L208 173L208 171L205 170M213 170L214 171L213 170z"/>
<path style="fill:#817d93; stroke:none;" d="M8 171L9 172L8 171z"/>
<path style="fill:#0e5210; stroke:none;" d="M222 171L218 176L222 171z"/>
<path style="fill:#fbfbfc; stroke:none;" d="M9 174L10 175L9 174z"/>
<path style="fill:#0e5210; stroke:none;" d="M219 177L220 178L219 177z"/>
<path style="fill:#0101ff; stroke:none;" d="M15 186L16 187L15 186z"/>
<path style="fill:#3e9640; stroke:none;" d="M234 186L235 187L234 186z"/>
<path style="fill:#fbfbfc; stroke:none;" d="M17 189L18 190L17 189z"/>
<path style="fill:#0101ff; stroke:none;" d="M231 191L232 192L231 191z"/>
<path style="fill:#3e9640; stroke:none;" d="M230 192L229 196L230 192M30.3333 206.667L30.6667 207.333L30.3333 206.667M32 208L33 209L32 208M33 210L40 217L33 210M209 217L210 218L209 217M42 218L46 222L42 218M201 224L202 225L201 224M55 229L56 230L55 229M60 232L61 233L60 232M186 234L187 235L186 234z"/>
<path style="fill:#0101ff; stroke:none;" d="M71 238L72 239L71 238z"/>
<path style="fill:#3e9640; stroke:none;" d="M178 238L179 239L178 238z"/>
<path style="fill:#fbfbfc; stroke:none;" d="M174 240L175 241L174 240M83 243L84 244L83 243z"/>
<path style="fill:#3e9640; stroke:none;" d="M166 243L167 244L166 243z"/>
<path style="fill:#fbfbfc; stroke:none;" d="M86 244L87 245L86 244z"/>
<path style="fill:#3e9640; stroke:none;" d="M92.6667 245.333L93.3333 245.667L92.6667 245.333z"/>
<path style="fill:#0101ff; stroke:none;" d="M92 246L93 247L92 246z"/>
<path style="fill:#817d93; stroke:none;" d="M93.6667 246.333L94.3333 246.667L93.6667 246.333z"/>
<path style="fill:#3e9640; stroke:none;" d="M95 246L95 247L116 250L95 246z"/>
<path style="fill:#fbfbfc; stroke:none;" d="M95 247L96 248L95 247z"/>
<path style="fill:#817d93; stroke:none;" d="M96 247L97 248L96 247z"/>
<path style="fill:#fbfbfc; stroke:none;" d="M101 248L102 249L101 248z"/>
<path style="fill:#817d93; stroke:none;" d="M102 248L103 249L102 248z"/>
</svg>
